<?xml version="1.0" encoding="UTF-8" standalone="no"?>
<!DOCTYPE svg PUBLIC "-//W3C//DTD SVG 1.1//EN" "http://www.w3.org/Graphics/SVG/1.1/DTD/svg11.dtd">
<!-- Created with Vectornator (http://vectornator.io/) -->
<svg height="100%" stroke-miterlimit="10" style="fill-rule:nonzero;clip-rule:evenodd;stroke-linecap:round;stroke-linejoin:round;" version="1.1" viewBox="0 0 102 102" width="100%" xml:space="preserve" xmlns="http://www.w3.org/2000/svg" xmlns:xlink="http://www.w3.org/1999/xlink">
<defs/>
<clipPath id="ArtboardFrame">
<rect height="102" width="102" x="0" y="0"/>
</clipPath>
<g clip-path="url(#ArtboardFrame)" id="Untitled">
<g opacity="1">
<path d="M9.77907 102L92.2207 102C94.8152 101.998 97.3025 100.981 99.1362 99.1748C100.97 97.3681 102 94.9197 102 92.3665L102 40.8481C101.999 40.0444 101.638 39.2818 101.013 38.7644L87.3647 27.418L87.3647 7.63707C87.3647 5.61183 86.5473 3.66901 85.0919 2.23663C83.6364 0.804329 81.662-8.88178e-16 79.604-8.88178e-16L22.9396-8.88178e-16C20.881-8.88178e-16 18.9073 0.804426 17.4518 2.23663C15.9963 3.66893 15.1782 5.61183 15.1782 7.63707L15.1782 27.0034L0.986821 38.7646C0.36195 39.2821 0.000772129 40.0447 1.66533e-15 40.8483L1.66533e-15 92.3667C1.66533e-15 94.9199 1.03012 97.3683 2.86381 99.175C4.69746 100.981 7.18456 101.998 9.77931 102L9.77907 102ZM92.2108 96.5446L9.77907 96.5446C8.6546 96.5423 7.57732 96.1009 6.78381 95.317C5.98956 94.5339 5.54333 93.473 5.54333 92.3664L5.54333 46.0518L37.1412 68.0479L14.7119 84.9372C13.4876 85.8413 13.2394 87.5506 14.1574 88.7562C15.0761 89.9609 16.8139 90.2052 18.0382 89.3011L41.8871 71.3426L49.6478 76.7978C50.6075 77.4668 51.8921 77.4668 52.8519 76.7978L60.6126 71.3426L84.4714 89.2684C85.6964 90.1725 87.4334 89.9282 88.3522 88.7235C89.271 87.518 89.0227 85.8086 87.7977 84.9044L65.4139 68.0479L96.4575 46.4453L96.4575 92.3781L96.4575 92.3773C96.4544 93.4816 96.0074 94.5403 95.2131 95.321C94.4196 96.1018 93.3447 96.5424 92.2218 96.5447L92.2108 96.5446ZM94.9051 40.8354L87.3656 46.0837L87.3656 34.5516L94.9051 40.8354ZM22.9387 5.46435L79.615 5.46435C80.2035 5.46435 80.7673 5.69419 81.1834 6.10286C81.5987 6.51231 81.8322 7.0671 81.8322 7.64627L81.8322 49.9123L51.2757 71.1992L20.7311 49.9123L20.7311 7.63458C20.7373 6.43822 21.721 5.46945 22.9376 5.464L22.9387 5.46435ZM15.178 46.0841L7.32846 40.6289L15.178 34.0823L15.178 46.0841ZM50.9989 57.1909L51.7088 57.1909C53.2393 57.1909 54.4806 55.9694 54.4806 54.4633C54.4806 52.9564 53.2393 51.7357 51.7088 51.7357L50.9989 51.7357C46.3115 51.7357 41.8167 49.9031 38.5021 46.6413C35.1883 43.3803 33.3258 38.9571 33.3258 34.3443C33.3258 29.7316 35.1881 25.3084 38.5021 22.0466C41.8167 18.7855 46.3115 16.9528 50.9989 16.9528C55.6863 16.9528 60.1811 18.7854 63.4957 22.0466C66.8095 25.3084 68.6719 29.7316 68.6719 34.3443L68.6719 39.0027C68.6077 40.0453 68.0061 40.9829 67.0765 41.4867C66.1477 41.9905 65.02 41.9905 64.0913 41.4867C63.1617 40.9829 62.56 40.0453 62.4959 39.0027L62.4959 34.3443C62.5191 30.8937 60.9453 27.6204 58.2191 25.45C55.4936 23.2794 51.9123 22.4469 48.4878 23.189C45.0634 23.9303 42.1679 26.1654 40.6197 29.2615C39.0721 32.3575 39.0397 35.9785 40.5323 39.1011C42.0249 42.2228 44.8801 44.5075 48.2914 45.3081C51.702 46.108 55.2974 45.3378 58.0614 43.2145C59.3165 45.423 61.5074 46.9657 64.0373 47.4208C66.5669 47.8767 69.1709 47.1978 71.1399 45.5692C73.1081 43.9413 74.2357 41.5333 74.2155 39.0029L74.2155 34.3445C74.2155 28.285 71.7694 22.4744 67.4152 18.1898C63.0612 13.9051 57.1566 11.4978 50.999 11.4978C44.8413 11.4978 38.9367 13.9049 34.5827 18.1898C30.2287 22.4744 27.7824 28.285 27.7824 34.3445C27.7824 40.4041 30.2285 46.2146 34.5827 50.4993C38.9367 54.784 44.8413 57.1913 50.999 57.1913L50.9989 57.1909ZM50.9989 40.2028C49.4197 40.2028 47.9054 39.5856 46.7886 38.4874C45.6726 37.3885 45.0454 35.8983 45.0454 34.3442C45.0454 32.7901 45.6726 31.3 46.7886 30.201C47.9053 29.1028 49.4196 28.4848 50.9989 28.4848C52.5782 28.4848 54.0924 29.1028 55.2092 30.201C56.3251 31.2999 56.9523 32.79 56.9523 34.3442C56.9523 35.8983 56.3251 37.3884 55.2092 38.4874C54.0924 39.5856 52.5782 40.2028 50.9989 40.2028Z" fill="#ffffff" fill-rule="nonzero" opacity="1" stroke="none"/>
</g>
</g>
</svg>
