<?xml version="1.0" encoding="UTF-8" standalone="no"?>
<!DOCTYPE svg PUBLIC "-//W3C//DTD SVG 1.1//EN" "http://www.w3.org/Graphics/SVG/1.1/DTD/svg11.dtd">
<!-- Created with Vectornator (http://vectornator.io/) -->
<svg height="100%" stroke-miterlimit="10" style="fill-rule:nonzero;clip-rule:evenodd;stroke-linecap:round;stroke-linejoin:round;" version="1.1" viewBox="0 0 102 102" width="100%" xml:space="preserve" xmlns="http://www.w3.org/2000/svg" xmlns:xlink="http://www.w3.org/1999/xlink">
<defs/>
<g id="Page-1">
<g opacity="1">
<path d="M88.1724 58.9249L88.1724 84.7934L71.5226 84.7934L71.5226 60.7142C71.5226 54.4134 68.9205 50.1166 63.1942 50.1166C58.8113 50.1166 56.3714 53.0178 55.2427 55.8091C54.8136 56.8195 54.8829 58.2152 54.8829 59.6175L54.8829 84.7934L38.3867 84.7934C38.3867 84.7934 38.6013 42.1466 38.3867 38.2688L54.8829 38.2688L54.8829 45.5715C55.8578 42.3781 61.1311 37.8244 69.5372 37.8244C79.9725 37.8244 88.1724 44.5103 88.1724 58.9249L88.1724 58.9249Z" fill="#ffffff" fill-rule="nonzero" opacity="1" stroke="#ffffff" stroke-linecap="butt" stroke-linejoin="round" stroke-width="2"/>
<path d="M14.7451 84.7931L29.4248 84.7931L29.4248 38.2701L14.7451 38.2701L14.7451 84.7931Z" fill="#ffffff" fill-rule="nonzero" opacity="1" stroke="#ffffff" stroke-linecap="butt" stroke-linejoin="round" stroke-width="2"/>
<path d="M30.3549 24.6074C30.3549 28.693 27.2325 31.932 22.2311 31.932L22.1297 31.932C17.3074 31.932 14.1849 28.7082 14.1849 24.6159C14.1849 20.4441 17.4004 17.2912 22.324 17.2912C27.2325 17.2912 30.2536 20.4373 30.3549 24.6074L30.3549 24.6074Z" fill="#ffffff" fill-rule="nonzero" opacity="1" stroke="#ffffff" stroke-linecap="butt" stroke-linejoin="round" stroke-width="2"/>
<path d="M93.2413 100L8.75862 100C5.02617 100 2 96.9739 2 93.2413L2 8.75862C2 5.02617 5.02617 2 8.75862 2L93.2413 2C96.9739 2 100 5.02617 100 8.75862L100 93.2413C100 96.9739 96.9739 100 93.2413 100L93.2413 100Z" fill="none" opacity="1" stroke="#ffffff" stroke-linecap="butt" stroke-linejoin="round" stroke-width="4"/>
</g>
</g>
</svg>
